<svg xmlns="http://www.w3.org/2000/svg" xmlns:xlink="http://www.w3.org/1999/xlink" width="1365" height="768" viewBox="0 0 1365 768"><defs><style>.a{fill:#fff;stroke:#707070;}.b{clip-path:url(#a);}.c{fill:url(#b);}.d{fill:url(#c);}.e{fill:url(#d);}.f{fill:url(#e);}.g{fill:url(#f);}.h{fill:#7b9e2c;opacity:0.7;}.i{fill:#2c959e;opacity:0.5;}</style><clipPath id="a"><rect class="a" width="1365" height="768"/></clipPath><linearGradient id="b" x1="1.024" y1="0.242" x2="-0.091" y2="-0.197" gradientUnits="objectBoundingBox"><stop offset="0" stop-color="#001d25" stop-opacity="0.376"/><stop offset="1" stop-color="#4b195f"/></linearGradient><linearGradient id="c" x1="0.08" y1="0.835" x2="0.691" y2="0.354" gradientUnits="objectBoundingBox"><stop offset="0" stop-color="#f38200" stop-opacity="0.698"/><stop offset="1" stop-color="#00223a" stop-opacity="0"/></linearGradient><linearGradient id="d" x1="0.845" y1="0.748" x2="0.022" y2="0.354" gradientUnits="objectBoundingBox"><stop offset="0" stop-color="#001d25" stop-opacity="0"/><stop offset="1" stop-color="#21434a"/></linearGradient><linearGradient id="e" x1="0.982" y1="0.283" x2="0.307" y2="0.815" gradientUnits="objectBoundingBox"><stop offset="0" stop-color="#357867" stop-opacity="0.314"/><stop offset="0.522" stop-color="#005a72" stop-opacity="0.302"/><stop offset="1" stop-color="#00223a"/></linearGradient><linearGradient id="f" x1="0.493" y1="0.1" x2="0.503" y2="0.819" gradientUnits="objectBoundingBox"><stop offset="0" stop-color="#004a78" stop-opacity="0.341"/><stop offset="0.437" stop-color="#450e5a" stop-opacity="0.4"/><stop offset="1" stop-color="#00223a" stop-opacity="0.4"/></linearGradient></defs><rect width="1365" height="768"/><g class="b"><path class="c" d="M112.919,411.93c5.382,39.628,24.762,120.247,46.687,178.736,13.414,35.788,75.849,94.552,126.746,108.68,72.115,20.018,151.714-78.982,163.712-93.906,74.992-93.272,118.473-256.527,50.031-340.361-60.368-73.943-163.43-31.744-215.9-117.391C248.654,89.668,274.98,36.064,236.17,12.374,193.792-13.5,86.117,5.558,55.415,29.681c-42.9,33.709-74.357,137.109-42.238,217.3C38.6,310.445,92.954,310.724,112.919,411.93Z" transform="translate(2216.988 -309.75) rotate(79)"/><g transform="translate(-26.002 -173.813)"><path class="d" d="M-63.56,89.13C5.215,237.189,66.162,273.153,111.011,276.054c45.935,2.969,85.152-28.088,156.065-10.976,43.032,10.385,58.469,29.034,80.949,37.266,123.116,45.093,383.926-249.149,340.3-342.6C660.391-100.1,9.036-69.4-63.56,89.13Z" transform="translate(63.56 68.695)"/></g><path class="e" d="M97.13-24.4c-.852,164.236,41.172,222.556,81.007,244.828,69.786,39.022,156.961-19.1,248.423,41.4,43.783,28.967,39.666,52.78,70.2,66.607C616.853,382.819,917.3,121.809,878.4,9.808,853.3-62.433,676.01-104.411,97.13-24.4Z" transform="translate(563.659 -134.145)"/><path class="f" d="M993.341,36.792C970.075,19.437,931.584-3.486,886.541.445,817.418,6.479,798.786,70,722.074,101.974c-80.822,33.685-101.549-19.57-203.236-1.2-136.272,24.612-139.454,127.55-279.43,144.669-51.172,6.258-81.366-3.755-133.974,18.889C54.426,286.283,20.6,322.474,0,349.592L929.981,475.4s113.4-148.127,129.237-257.78S993.341,36.792,993.341,36.792Z" transform="translate(426.934 490.848) rotate(9)"/><path class="g" d="M98.095,21.114C119.714,9.3,154.887-5.538,192.868,2.089c58.289,11.705,67.611,65.157,129.69,98.687,65.4,35.327,88.568-5.908,173.335,19.023,113.6,33.41,105.685,117.371,223.215,145.058,42.965,10.122,69.733,4.957,112.231,28.536,36.92,20.483,45.764,28.115,45.763,54.2s-165.789,57.648-165.789,57.648-185.679,31.111-413.769-7.513S2.217,309.222.035,218.56,98.095,21.114,98.095,21.114Z" transform="matrix(0.966, -0.259, 0.259, 0.966, -101.291, 610.901)"/><ellipse class="h" cx="11.5" cy="11.5" rx="11.5" ry="11.5" transform="translate(2185.631 195.835)"/><ellipse class="i" cx="12.5" cy="12.5" rx="12.5" ry="12.5" transform="translate(828.67 568.835)"/></g></svg>