<svg xmlns="http://www.w3.org/2000/svg" xmlns:xlink="http://www.w3.org/1999/xlink" width="197" height="197" viewBox="0 0 197 197"><defs><style>.a,.g{fill:#fff;}.a{stroke:#707070;}.b{fill:#fff086;stroke:#fff;stroke-width:3px;}.c{clip-path:url(#a);}.d{fill:#207584;}.e{fill:#66c4d6;}.f{fill:#002d4c;}.h{fill:#070303;}.i{stroke:none;}.j{fill:none;}</style><clipPath id="a"><circle class="a" cx="90" cy="90" r="90" transform="translate(-0.436 -0.436)"/></clipPath></defs><g transform="translate(0 0)"><g class="b" transform="translate(0 0)"><circle class="i" cx="98.5" cy="98.5" r="98.5"/><circle class="j" cx="98.5" cy="98.5" r="97"/></g><g class="c" transform="translate(8.436 8.436)"><g transform="translate(13.21 10.609)"><path class="d" d="M325.788,427.885a76.409,76.409,0,0,0-15.693,8.93c-1.8,1.329-17.115,12.775-14.882,17.587.574,1.234,2.483,2.421,8.388,2.164l9.741-10.011q-.677,5.547-1.353,11.094c27.367,7.924,51.229.181,76.843.271a20.79,20.79,0,0,0-1.081-11.094,20.116,20.116,0,0,0-2.977-5.142c-.315-.4,5.184,3.324,8.388,8.93a27.134,27.134,0,0,1,2.975,7.846h5.953a59.468,59.468,0,0,0-4.6-19.481c-.3-.71-5.82-13.433-13.528-19.481C371.471,409.7,347.557,412.968,325.788,427.885Z" transform="translate(-273.297 -291.549)"/><path class="d" d="M385.884,393.969a21.922,21.922,0,0,1-2.975-10.011c-.024-.541-.259-8.744,5.14-15.153,1.481-1.755,1.857-1.565,2.706-2.975,3.284-5.457-.094-12.067.812-12.447.884-.371,5.49,5.353,8.388,14.341,1.388,4.3,6.485,20.116-1.623,30.845-2.371,3.138-7.251,7.665-10.282,6.224C385.715,403.683,384.856,399.218,385.884,393.969Z" transform="translate(-249.382 -308.019)"/><path class="d" d="M294.864,393.969a21.923,21.923,0,0,0,2.977-10.011c.023-.541.26-8.744-5.142-15.153-1.479-1.755-1.856-1.565-2.706-2.975-3.283-5.457.094-12.067-.812-12.447-.884-.371-5.49,5.353-8.388,14.341-1.387,4.3-6.485,20.116,1.623,30.845,2.371,3.138,7.251,7.665,10.282,6.224C295.034,403.683,295.892,399.218,294.864,393.969Z" transform="translate(-277.937 -308.019)"/><path class="e" d="M408.229,371.546a61.565,61.565,0,0,0-10.417-12.967l16.315-9.417h-17.1l7.907-6.989-20.044-.183,5.332-10.114-15.446,4.6,3.493-12.689-18.389,9.93,1.839-16L349.4,332.611l-6.435-14.894-3.112,16.5-17.926-8.613,5.774,13.04-19.492-3.278,7.625,11.7c-17.578,7.955-26.634,31.015-28.781,50.757-2.358,21.677,9.958,44.2,29.48,53.914,11.347,5.647,24.282,7.1,36.938,7.8,13.308.738,27.415.551,38.893-6.227,7.113-4.2,12.686-10.693,16.734-17.895A64.975,64.975,0,0,0,408.229,371.546Z" transform="translate(-275.535 -317.717)"/><path class="f" d="M319.382,397.508c6.713,1.543,15.35,4.576,30.831,5.187,24.708.974,41.751-12.845,45.939-16.448-1.166,4.768-6.075,22.346-22.686,32.327-22.878,13.746-51.448,3.164-64.653-10.776-4.685-4.946-8.507-17.581-8.507-17.581S313.959,396.262,319.382,397.508Z" transform="translate(-271.851 -299.074)"/><path class="g" d="M365.352,397.729l5.009-3.269-1.023-2.858c-1.6.959-3.37,1.935-5.3,2.881Z" transform="translate(-254.512 -297.617)"/><path class="g" d="M354.944,402.837l5.565-3.073-1.378-3.288a65.448,65.448,0,0,1-6.435,1.847Z" transform="translate(-257.599 -296.291)"/><path class="g" d="M368.29,404.846l-3.269-2.739-4.869,4.452,2.947,3.454A46.57,46.57,0,0,0,368.29,404.846Z" transform="translate(-255.571 -294.759)"/><path class="g" d="M353.624,410.091l-6.817,3.618,1.374,3.511a44.412,44.412,0,0,0,8.127-2.768Z" transform="translate(-259.201 -292.587)"/><path class="g" d="M340.966,399.276l.89,4.939,6.54-1.113-.346-4.144A63,63,0,0,1,340.966,399.276Z" transform="translate(-260.79 -295.616)"/><path class="g" d="M321.1,396.5l-1.094,4.765,6.261,1.563,1.63-4.818C325.386,397.529,323.142,397.008,321.1,396.5Z" transform="translate(-266.491 -296.284)"/><path class="g" d="M316.825,395.474a51.108,51.108,0,0,1-5.494-1.748L309.7,398.02l5.294,2.49,2.37-4.909C317.187,395.56,317,395.514,316.825,395.474Z" transform="translate(-269.295 -297.039)"/><path class="g" d="M328.574,416.206A57.334,57.334,0,0,0,336.2,417.6l.678-4.457-7.235-.974Z" transform="translate(-264.161 -292.022)"/><path class="g" d="M314.166,409.867a60.383,60.383,0,0,0,5.918,3.371l2.491-3.885-6.4-3.2Z" transform="translate(-268.081 -293.658)"/><path class="g" d="M311.021,370.435c-.365,1.778-1.827,8.9,2.5,14.075,5.03,6.017,16.068,7.25,23.146,1.252a16.993,16.993,0,0,0,3.128-22.209c-4.38-6.363-13.047-8.9-19.707-5.943C313.009,360.758,311.374,368.714,311.021,370.435Z" transform="translate(-269.081 -307.198)"/><path class="g" d="M342.186,369.205c-.365,1.78-1.828,8.9,2.5,14.076,5.031,6.017,16.068,7.248,23.146,1.25a16.991,16.991,0,0,0,3.128-22.207c-4.378-6.364-13.047-8.9-19.705-5.943C344.173,359.529,342.539,367.486,342.186,369.205Z" transform="translate(-260.603 -307.533)"/><circle class="h" cx="2.566" cy="2.566" r="2.566" transform="translate(91.179 61.708)"/><circle class="h" cx="2.566" cy="2.566" r="2.566" transform="translate(64.082 61.708)"/></g></g></g></svg>