<svg xmlns="http://www.w3.org/2000/svg" xmlns:xlink="http://www.w3.org/1999/xlink" width="197" height="197" viewBox="0 0 197 197"><defs><style>.a{fill:#fff;stroke:#707070;}.b{fill:#69d1ff;stroke:#fff;stroke-width:3px;}.c{clip-path:url(#a);}.d{fill:#53b4aa;}.e{fill:#92a70b;}.f{fill:#d1d783;}.g{fill:#070303;}.h{stroke:none;}.i{fill:none;}</style><clipPath id="a"><circle class="a" cx="90" cy="90" r="90" transform="translate(-0.436 -0.436)"/></clipPath></defs><g transform="translate(0 0)"><g class="b" transform="translate(0 0)"><circle class="h" cx="98.5" cy="98.5" r="98.5"/><circle class="i" cx="98.5" cy="98.5" r="97"/></g><g class="c" transform="translate(8.436 8.436)"><g transform="translate(33.743 12.994)"><path class="d" d="M125.443,111.931a44.556,44.556,0,0,0,12.8-26.351,43.024,43.024,0,0,0-2.259-18.823h0q1.508-1.129,3.012-2.259a87.509,87.509,0,0,1,4.518,21.082c.923,10.567,1.934,22.131-4.518,26.351C137.7,112.778,133.671,114.917,125.443,111.931Z" transform="translate(-53.718 -44.184)"/><path class="d" d="M108.562,103.22a44.555,44.555,0,0,1-12.8-26.351,43.045,43.045,0,0,1,2.258-18.821h0L95.01,55.789a87.584,87.584,0,0,0-4.517,21.08C89.57,87.437,88.558,99,95.01,103.22,96.307,104.069,100.335,106.208,108.562,103.22Z" transform="translate(-67.56 -47.567)"/><path class="e" d="M93.292,91.5C71.407,105.837,74.6,112.936,74.052,117.883c-1.618,14.567,4.178,33.982,16.491,45.074,18.674,16.823,49.611,15.432,69.81,1.1,13.16-9.338,29.393-29.583,23.637-51.121-7.248-27.12-51.121-32.981-62.115-32.981C119.127,79.955,109.233,81.055,93.292,91.5Z" transform="translate(-73.786 -38.179)"/><circle class="e" cx="7.092" cy="7.092" r="7.092" transform="translate(75.55 12.093)"/><circle class="e" cx="7.092" cy="7.092" r="7.092" transform="translate(22.993 0)"/><path class="f" d="M132.549,151.434c-6.969,1.29-16.841,1.934-24.391.644-10.444-1.783-20.325-17.334-20.325-29.066v-8.267c0-11.732,8.648-21.33,19.214-21.33h33.581c10.568,0,19.214,9.6,19.214,21.33v8.267C159.843,134.744,142.974,149.505,132.549,151.434Z" transform="translate(-68.329 -32.949)"/><circle class="g" cx="2.801" cy="2.801" r="2.801" transform="translate(65.574 79.155)"/><circle class="g" cx="2.801" cy="2.801" r="2.801" transform="translate(35.996 79.155)"/><path class="g" d="M127.96,125.015c-.777,3.445-7.348,4.776-11.607,4.732-5.014-.053-9.706-2.213-10.419-3.717-.744-1.57,2.048-2.963,2.4-3.06,2.977-.832,5.015,1.65,7.97,1.8,5.555.285,8.577-4.463,10.715-2.963A3.239,3.239,0,0,1,127.96,125.015Z" transform="translate(-61.346 -22.033)"/><path class="e" d="M107.695,85.318a8.631,8.631,0,0,0-1.65-12.093,8.866,8.866,0,0,1,6.047,3.3,7.513,7.513,0,0,1,1.1,2.2,2.791,2.791,0,0,0,1.1-4.947,5.406,5.406,0,0,1,3.3,3.3,4.9,4.9,0,0,1,0,2.748,3.147,3.147,0,0,0,3.3-2.2,2.865,2.865,0,0,0-.55-2.2,6.8,6.8,0,0,1,2.2,9.894Z" transform="translate(-61.254 -40.793)"/><path class="e" d="M101.46,180.95a133.368,133.368,0,0,0,22.5,1.834,126.872,126.872,0,0,0,20.257-1.755l-12.753-38.92-19.239.55Z" transform="translate(-63.035 -14.031)"/><path class="e" d="M123.524,147.133c1.44.235,16.146,2.876,22.416,16.241a28.76,28.76,0,0,1,1.913,18.046c-.819-.036-3.238-2.849-4.056-2.884.255-1.555,1.815-7.369-5.439-16.234-6.838-8.356-14.831-10.927-16.493-11.059Z" transform="translate(-55.107 -12.08)"/><path class="e" d="M119.7,147.925c-1.44.233-16.147,2.874-22.417,16.241a28.759,28.759,0,0,0-1.913,18.046c.819-.036,3.238-2.849,4.057-2.885-.257-1.555-1.816-7.367,5.437-16.233,6.838-8.357,14.831-10.928,16.493-11.059Q120.529,149.979,119.7,147.925Z" transform="translate(-65.657 -11.772)"/></g></g></g></svg>