<svg xmlns="http://www.w3.org/2000/svg" xmlns:xlink="http://www.w3.org/1999/xlink" width="197" height="196.837" viewBox="0 0 197 196.837"><defs><style>.a,.n{fill:#fff;}.a{stroke:#707070;}.b,.c{fill:#6fe2c3;}.b{stroke:#fff;}.d{clip-path:url(#a);}.e{clip-path:url(#b);}.f,.l{fill:none;stroke-miterlimit:10;}.f{stroke:#606375;}.g{fill:#e8819c;}.h{fill:#606375;}.i{fill:#f7d0d8;}.j{fill:#070303;}.k{fill:#f5e5e5;}.l{stroke:#070303;}.m,.n{stroke:none;}</style><clipPath id="a"><circle class="a" cx="90" cy="90" r="90" transform="translate(-0.436 -0.436)"/></clipPath><clipPath id="b"><path class="b" d="M91.744,0A91.744,91.744,0,1,1,0,91.744,91.744,91.744,0,0,1,91.744,0Z"/></clipPath></defs><g transform="translate(0 0)"><g class="c"><path class="m" d="M 98.4183349609375 195.336669921875 C 91.84156799316406 195.336669921875 85.26938629150391 194.6741790771484 78.88430786132812 193.3676300048828 C 72.66230773925781 192.0944213867188 66.54212188720703 190.1945953369141 60.69380950927734 187.7209625244141 C 54.95130920410156 185.2920989990234 49.41257095336914 182.2857513427734 44.23141479492188 178.7854461669922 C 39.09909820556641 175.3180999755859 34.27283477783203 171.3360748291016 29.8867301940918 166.9499359130859 C 25.5005989074707 162.5638275146484 21.5185718536377 157.7375793457031 18.05122947692871 152.6052551269531 C 14.55091381072998 147.4241027832031 11.54457187652588 141.8853607177734 9.115703582763672 136.1428680419922 C 6.642071723937988 130.2945404052734 4.742256164550781 124.1743621826172 3.469045400619507 117.9523620605469 C 2.162492752075195 111.5672836303711 1.499992847442627 104.9951019287109 1.499992847442627 98.4183349609375 C 1.499992847442627 91.84156799316406 2.162492752075195 85.26938629150391 3.469045400619507 78.88430786132812 C 4.742256164550781 72.66230773925781 6.642071723937988 66.54212188720703 9.115703582763672 60.69380950927734 C 11.54457187652588 54.95130920410156 14.55091381072998 49.41257095336914 18.05122947692871 44.23141479492188 C 21.5185718536377 39.09909820556641 25.5005989074707 34.27283477783203 29.8867301940918 29.8867301940918 C 34.27283477783203 25.5005989074707 39.09909820556641 21.5185718536377 44.23141479492188 18.05122947692871 C 49.41257095336914 14.55091381072998 54.95130920410156 11.54457187652588 60.69380950927734 9.115703582763672 C 66.54212188720703 6.642071723937988 72.66230773925781 4.742256164550781 78.88430786132812 3.469045400619507 C 85.26938629150391 2.162492752075195 91.84156799316406 1.499992847442627 98.4183349609375 1.499992847442627 C 104.9951019287109 1.499992847442627 111.5672836303711 2.162492752075195 117.9523620605469 3.469045400619507 C 124.1743621826172 4.742256164550781 130.2945404052734 6.642071723937988 136.1428680419922 9.115703582763672 C 141.8853607177734 11.54457187652588 147.4241027832031 14.55091381072998 152.6052551269531 18.05122947692871 C 157.7375793457031 21.5185718536377 162.5638275146484 25.5005989074707 166.9499359130859 29.8867301940918 C 171.3360748291016 34.27283477783203 175.3180999755859 39.09909820556641 178.7854461669922 44.23141479492188 C 182.2857513427734 49.41257095336914 185.2920989990234 54.95130920410156 187.7209625244141 60.69380950927734 C 190.1945953369141 66.54212188720703 192.0944213867188 72.66230773925781 193.3676300048828 78.88430786132812 C 194.6741790771484 85.26938629150391 195.336669921875 91.84156799316406 195.336669921875 98.4183349609375 C 195.336669921875 104.9951019287109 194.6741790771484 111.5672836303711 193.3676300048828 117.9523620605469 C 192.0944213867188 124.1743621826172 190.1945953369141 130.2945404052734 187.7209625244141 136.1428680419922 C 185.2920989990234 141.8853607177734 182.2857513427734 147.4241027832031 178.7854461669922 152.6052551269531 C 175.3180999755859 157.7375793457031 171.3360748291016 162.5638275146484 166.9499359130859 166.9499359130859 C 162.5638275146484 171.3360748291016 157.7375793457031 175.3180999755859 152.6052551269531 178.7854461669922 C 147.4241027832031 182.2857513427734 141.8853607177734 185.2920989990234 136.1428680419922 187.7209625244141 C 130.2945404052734 190.1945953369141 124.1743621826172 192.0944213867188 117.9523620605469 193.3676300048828 C 111.5672836303711 194.6741790771484 104.9951019287109 195.336669921875 98.4183349609375 195.336669921875 Z"/><path class="n" d="M 98.4183349609375 3 C 91.94235992431641 3 85.47133636474609 3.652252197265625 79.18502807617188 4.938613891601562 C 73.06002807617188 6.191970825195312 67.0352783203125 8.0621337890625 61.27813720703125 10.49722290039062 C 55.62486267089844 12.88836669921875 50.17202758789062 15.84808349609375 45.07113647460938 19.29417419433594 C 40.01791381835938 22.70805358886719 35.26600646972656 26.62875366210938 30.9473876953125 30.9473876953125 C 26.62875366210938 35.26600646972656 22.70805358886719 40.01791381835938 19.29417419433594 45.07113647460938 C 15.84808349609375 50.17202758789062 12.88836669921875 55.62486267089844 10.49722290039062 61.27813720703125 C 8.0621337890625 67.0352783203125 6.191970825195312 73.06002807617188 4.938613891601562 79.18502807617188 C 3.652252197265625 85.47133636474609 3 91.94235992431641 3 98.4183349609375 C 3 104.8943099975586 3.652252197265625 111.3653335571289 4.938613891601562 117.6516418457031 C 6.191970825195312 123.7766418457031 8.0621337890625 129.8013916015625 10.49722290039062 135.5585327148438 C 12.88836669921875 141.2118072509766 15.84808349609375 146.6646423339844 19.29417419433594 151.7655334472656 C 22.70805358886719 156.8187561035156 26.62875366210938 161.5706634521484 30.9473876953125 165.8892822265625 C 35.26600646972656 170.2079162597656 40.01791381835938 174.1286163330078 45.07113647460938 177.5424957275391 C 50.17202758789062 180.9885864257812 55.62486267089844 183.9483032226562 61.27813720703125 186.3394470214844 C 67.0352783203125 188.7745361328125 73.06002807617188 190.6446990966797 79.18502807617188 191.8980560302734 C 85.47133636474609 193.1844177246094 91.94235992431641 193.836669921875 98.4183349609375 193.836669921875 C 104.8943099975586 193.836669921875 111.3653335571289 193.1844177246094 117.6516418457031 191.8980560302734 C 123.7766418457031 190.6446990966797 129.8013916015625 188.7745361328125 135.5585327148438 186.3394470214844 C 141.2118072509766 183.9483032226562 146.6646423339844 180.9885864257812 151.7655334472656 177.5424957275391 C 156.8187561035156 174.1286163330078 161.5706634521484 170.2079162597656 165.8892822265625 165.8892822265625 C 170.2079162597656 161.5706634521484 174.1286163330078 156.8187561035156 177.5424957275391 151.7655334472656 C 180.9885864257812 146.6646423339844 183.9483032226562 141.2118072509766 186.3394470214844 135.5585327148438 C 188.7745361328125 129.8013916015625 190.6446990966797 123.7766418457031 191.8980560302734 117.6516418457031 C 193.1844177246094 111.3653335571289 193.836669921875 104.8943099975586 193.836669921875 98.4183349609375 C 193.836669921875 91.94235992431641 193.1844177246094 85.47133636474609 191.8980560302734 79.18502807617188 C 190.6446990966797 73.06002807617188 188.7745361328125 67.0352783203125 186.3394470214844 61.27813720703125 C 183.9483032226562 55.62486267089844 180.9885864257812 50.17202758789062 177.5424957275391 45.07113647460938 C 174.1286163330078 40.01791381835938 170.2079162597656 35.26600646972656 165.8892822265625 30.9473876953125 C 161.5706634521484 26.62875366210938 156.8187561035156 22.70805358886719 151.7655334472656 19.29417419433594 C 146.6646423339844 15.84808349609375 141.2118072509766 12.88836669921875 135.5585327148438 10.49722290039062 C 129.8013916015625 8.0621337890625 123.7766418457031 6.191970825195312 117.6516418457031 4.938613891601562 C 111.3653335571289 3.652252197265625 104.8943099975586 3 98.4183349609375 3 M 98.4183349609375 0 C 152.7732849121094 0 196.836669921875 44.06338500976562 196.836669921875 98.4183349609375 C 196.836669921875 152.7732849121094 152.7732849121094 196.836669921875 98.4183349609375 196.836669921875 C 44.06338500976562 196.836669921875 0 152.7732849121094 0 98.4183349609375 C 0 44.06338500976562 44.06338500976562 0 98.4183349609375 0 Z"/></g><g class="d" transform="translate(8.436 8.436)"><g class="e" transform="translate(0.691 -1.981)"><g transform="translate(16.181 18.876)"><path class="f" d="M177.228,308.992c-3.708.344-7.473.687-11.134.006s-7.269-2.535-9.234-5.7c-2.681-4.316-1.743-9.966.193-14.665,1.753-4.251,4.3-8.542,3.687-13.1a13.333,13.333,0,0,0-5.044-8.224,39.645,39.645,0,0,0-8.542-4.908" transform="translate(-138.71 -214.954)"/><path class="g" d="M142.086,253.283c2.1,3.034,7.155,5.537,10.4,7.288a5.559,5.559,0,0,1,2.169,1.814,4.606,4.606,0,0,1,.626,2.125,7.4,7.4,0,0,1-2.8,6.275,5.379,5.379,0,0,1-1.975,1c-2.409.6-4.849-.995-6.413-2.921-3.092-3.807-3.629-10.957-2.009-15.584" transform="translate(-141.194 -218.756)"/><path class="h" d="M172.894,326.168c-2.722,8.092-5.479,16.424-5.017,24.948a9.669,9.669,0,0,0,.752,3.663,4.033,4.033,0,0,0,2.776,2.329,4.35,4.35,0,0,0,2.643-.492c2.652-1.3,4.251-4.03,5.663-6.624,4.843-8.9,9.341-18.136,11.434-28.051.273-1.3.438-2.841-.506-3.773a3.593,3.593,0,0,0-1.911-.83c-4.006-.752-12.8,6.108-15.834,8.83" transform="translate(-130.092 -192.077)"/><path class="h" d="M222.667,326.168c2.722,8.092,5.479,16.424,5.017,24.948a9.645,9.645,0,0,1-.754,3.663,4.031,4.031,0,0,1-2.774,2.329,4.356,4.356,0,0,1-2.644-.492c-2.651-1.3-4.251-4.03-5.662-6.624-4.843-8.9-9.341-18.136-11.434-28.051-.273-1.3-.438-2.841.506-3.773a3.594,3.594,0,0,1,1.911-.83c4-.752,12.8,6.108,15.834,8.83" transform="translate(-114.927 -192.077)"/><g transform="translate(26.518)"><path class="h" d="M184.8,273.721c3.957-2.848,7.252-8.28,6.447-13.564-1.329-8.729-12.687-9.414-18.667-21.939a30.462,30.462,0,0,1-2.7-9.3,36.682,36.682,0,0,0-9.351,18.418c-1.326,7.594-1.3,22.761,8.226,27.666A15.917,15.917,0,0,0,184.8,273.721Z" transform="translate(-159.91 -228.915)"/><path class="i" d="M180.339,261c2.634-3.972-2.9-11.692-7.862-15.318-1.709-1.248-3.16-2.308-4.475-1.831-3.562,1.3-5.772,13.781.6,18.1C172.288,264.448,178.4,263.916,180.339,261Z" transform="translate(-157.974 -222.738)"/></g><g transform="translate(94.014)"><path class="h" d="M214.117,273.721c-3.957-2.848-7.253-8.28-6.448-13.564,1.331-8.729,12.687-9.414,18.669-21.939a30.546,30.546,0,0,0,2.7-9.3,36.693,36.693,0,0,1,9.35,18.418c1.326,7.594,1.3,22.761-8.226,27.666A15.914,15.914,0,0,1,214.117,273.721Z" transform="translate(-207.547 -228.915)"/><path class="i" d="M214.169,261c-2.635-3.972,2.9-11.692,7.861-15.318,1.71-1.248,3.161-2.308,4.474-1.831,3.562,1.3,5.774,13.781-.6,18.1C222.22,264.448,216.106,263.916,214.169,261Z" transform="translate(-205.07 -222.738)"/></g><path class="g" d="M186.276,249.65c10.743-.006,22.63,1.172,33.373,1.167,2.927,0,9.659-.282,12.579-.094,5.217.337,8.554-.054,10.937,2.9,6.26,7.763,6.281,15.885,7.7,25.756,3.058,21.318,4.024,25.895,7.082,47.215.271,1.879,4.586,26.268,2.1,30.972-2.08,3.929-7.94,8.243-9.537,8.938-13.078,5.692-31.932,5.1-46.172,4.295-14.194-.8-22.048,1.286-34.371-5.8-3.464-1.994-7.039-4.085-9.346-7.348-5.058-7.154-1.475-27.628,1.17-35.982,5.9-18.629,7.9-38.052,11.427-57.272,1.192-6.487,6.5-14.091,13.065-14.745" transform="translate(-134.162 -220.271)"/><circle class="j" cx="2.858" cy="2.858" r="2.858" transform="translate(87.633 64.481)"/><circle class="j" cx="2.858" cy="2.858" r="2.858" transform="translate(57.451 64.481)"/><rect class="k" width="9.022" height="13.39" transform="translate(69.974 97.914) rotate(9.347)"/><rect class="k" width="9.022" height="13.39" transform="translate(89.516 111.126) rotate(170.653)"/><path class="l" d="M174.583,293.586c9.183,6.265,20.882,7.31,32,7.47a38.652,38.652,0,0,0,10.675-.91c4.918-1.332,9.152-4.405,13.261-7.417" transform="translate(-127.275 -202.312)"/><path class="g" d="M231.258,299.731c4.81,3.073,9.738,6.258,13.072,10.893a6.464,6.464,0,0,1,1.142,2.224,2.693,2.693,0,0,1-.469,2.376,2.919,2.919,0,0,1-1.583.853c-1.927.432-3.9-.319-5.727-1.078-6.254-2.607-12.469-5.531-17.715-9.82-.687-.561-1.42-1.3-1.319-2.178a2.391,2.391,0,0,1,.649-1.233c1.77-2.071,9.23-2.185,11.95-2.037" transform="translate(-108.905 -199.412)"/><path class="g" d="M166.323,299.731c-4.81,3.073-9.74,6.258-13.072,10.893a6.468,6.468,0,0,0-1.143,2.224,2.7,2.7,0,0,0,.469,2.376,2.929,2.929,0,0,0,1.583.853c1.928.432,3.9-.319,5.727-1.078,6.255-2.607,12.47-5.531,17.717-9.82.686-.561,1.418-1.3,1.318-2.178a2.4,2.4,0,0,0-.647-1.233c-1.771-2.071-9.23-2.185-11.95-2.037" transform="translate(-136.681 -199.412)"/></g></g></g></g></svg>