<svg xmlns="http://www.w3.org/2000/svg" xmlns:xlink="http://www.w3.org/1999/xlink" width="197" height="197" viewBox="0 0 197 197"><defs><style>.a,.g{fill:#fff;}.a{stroke:#707070;}.b{fill:#ff9b9b;stroke:#fff;stroke-width:3px;}.c{clip-path:url(#a);}.d{fill:#0096a8;}.e{fill:#a7d4db;}.f{fill:#ffeb00;}.h{fill:#070303;}.i{stroke:none;}.j{fill:none;}</style><clipPath id="a"><circle class="a" cx="90" cy="90" r="90" transform="translate(-0.436 -0.436)"/></clipPath></defs><g transform="translate(0 0)"><g class="b" transform="translate(0 0)"><circle class="i" cx="98.5" cy="98.5" r="98.5"/><circle class="j" cx="98.5" cy="98.5" r="97"/></g><g class="c" transform="translate(8.436 8.436)"><g transform="translate(14.06 28.467)"><g transform="translate(0 12.858)"><path class="d" d="M156.664,474.82c-8.233,2.9-17.122,1.082-22.237-4.529-6.919-7.591-6.316-21.444,3.295-30.061-2.936.443-18.311,3.03-23.884,14.413-9.26,18.911,15.333,48.215,28.414,45.709C144.75,499.873,152,497.243,156.664,474.82Z" transform="translate(-111.802 -440.23)"/><path class="e" d="M116.708,448.221a24.191,24.191,0,0,1,2.465-2.162,19.414,19.414,0,0,0,10.8,3.505,22.787,22.787,0,0,0-.82,3.377,11.261,11.261,0,0,1-7.8-.6A11.124,11.124,0,0,1,116.708,448.221Z" transform="translate(-110.861 -439.111)"/><path class="e" d="M112.081,457a49.165,49.165,0,0,0,18.07,1.252,19.4,19.4,0,0,0,.74,2.753,18.053,18.053,0,0,1-19.056-1.366A22.547,22.547,0,0,1,112.081,457Z" transform="translate(-111.796 -437.012)"/><path class="e" d="M125,469.911a38.634,38.634,0,0,0,9.419-4.1,16.738,16.738,0,0,0,2.091,1.8,16.339,16.339,0,0,1-20.455,7.88c-.727-1.347-1.39-2.723-1.971-4.118A38.643,38.643,0,0,0,125,469.911Z" transform="translate(-111.365 -435.32)"/><path class="e" d="M140.915,469.713c.385.111.777.2,1.172.291-.385,5.31-2.495,15.057-9.587,18.269a12.652,12.652,0,0,1-6.086,1.013,44.6,44.6,0,0,1-4.55-4.308,22.648,22.648,0,0,0,12.884-5.248A22.258,22.258,0,0,0,140.915,469.713Z" transform="translate(-109.871 -434.571)"/></g><g transform="translate(103.325 8.803)"><path class="d" d="M198.488,471.418c8.234,2.9,17.123,1.082,22.238-4.529,6.918-7.592,6.316-21.444-3.295-30.061,2.936.443,18.311,3.03,23.884,14.413,9.26,18.911-15.333,48.215-28.415,45.709C210.4,496.472,203.153,493.841,198.488,471.418Z" transform="translate(-198.488 -436.828)"/><path class="e" d="M233.355,444.819a24.156,24.156,0,0,0-2.464-2.162,19.422,19.422,0,0,1-10.8,3.505,22.951,22.951,0,0,1,.82,3.377,11.255,11.255,0,0,0,7.8-.6A11.111,11.111,0,0,0,233.355,444.819Z" transform="translate(-194.341 -435.709)"/><path class="e" d="M238.917,453.6a49.16,49.16,0,0,1-18.07,1.252,19.542,19.542,0,0,1-.74,2.753,18.05,18.05,0,0,0,19.054-1.366A22.537,22.537,0,0,0,238.917,453.6Z" transform="translate(-194.338 -433.61)"/><path class="e" d="M226.541,466.509a38.614,38.614,0,0,1-9.419-4.1,16.824,16.824,0,0,1-2.092,1.8,16.339,16.339,0,0,0,20.455,7.88,45.35,45.35,0,0,0,1.971-4.118A38.622,38.622,0,0,1,226.541,466.509Z" transform="translate(-195.313 -431.918)"/><path class="e" d="M210.271,466.312c-.385.109-.778.2-1.173.29.386,5.31,2.5,15.057,9.588,18.269a12.645,12.645,0,0,0,6.085,1.013,44.531,44.531,0,0,0,4.551-4.308,22.643,22.643,0,0,1-12.884-5.248A22.251,22.251,0,0,1,210.271,466.312Z" transform="translate(-196.451 -431.169)"/></g><path class="f" d="M232.14,483.821a55.039,55.039,0,0,0-26.62-22.438v-.15c-.008-1.924-.175-3.922,0-5.837a2.8,2.8,0,0,1,.267-1.012,12.542,12.542,0,1,0-5.482-2.212,8.469,8.469,0,0,0-.673,2.466,35.246,35.246,0,0,0-.094,4.738,52.533,52.533,0,0,0-15-1.943c-3.6.069-8.907.16-13.9.614a38.567,38.567,0,0,0-.088-5.092,8.289,8.289,0,0,0-.216-1.125,12.762,12.762,0,1,0-5.64,2.509c.083,1.486.011,3.007-.02,4.5-2.976.563-5.413,1.361-6.644,2.514C140,465.857,130.9,487.743,128.889,506.214c-1.837,16.883,6.777,34.364,20.974,43.566a17.885,17.885,0,0,0-5.9,4.25c-3.006,3.31-4.171,9.87-3.055,11.2,1.573,1.869,8.276-3.7,13.712-.9,3.409,1.755,2.749,4.96,5.783,5.975,4.552,1.523,7.645-5.155,13.28-4.465s6.726,7.868,11.232,7.593c4.326-.266,5.085-6.988,9.617-7.316,4.634-.336,7.271,6.445,10.441,5.46,2.9-.9,1.7-6.907,5.137-8.538,3.842-1.82,8.342,4.25,11.615,2.4,2.268-1.285,2.863-5.759,1.366-8.717a7.927,7.927,0,0,0-3.992-3.534,40.708,40.708,0,0,0,13.779-14.936A55.36,55.36,0,0,0,232.14,483.821Z" transform="translate(-108.57 -429.443)"/><path class="d" d="M157.115,495.675c15.047-.822,32.067,2.556,45.425.9,1.818,4.054,1.166,7.268,1,11.644-.142,3.718-.428,7.774-3.178,10.528a14.717,14.717,0,0,1-5.755,3.177,44.007,44.007,0,0,1-30.12-.792,17.787,17.787,0,0,1-5.087-2.883,14.061,14.061,0,0,1-3.092-4.035c-2.875-5.36-1.405-12.923.808-18.537" transform="translate(-103.566 -416.755)"/><g transform="translate(58.772 78.794)"><path class="g" d="M164.018,500.835c1.925.641,5.216-1.114,6.975-4.946-3.32-.2-6.63-.337-9.884-.341C161.344,498.276,162.543,500.345,164.018,500.835Z" transform="translate(-161.11 -495.548)"/><path class="g" d="M182.273,496.675c-3.991-.23-8.074-.546-12.159-.8.4,3.236,2.182,5.723,4.227,6.276C176.87,502.838,180.64,500.782,182.273,496.675Z" transform="translate(-159.382 -495.485)"/><path class="g" d="M192.529,496.762c-3.647.151-7.49.044-11.437-.169.75,3.727,3.3,6.215,5.452,6.3C188.755,502.984,191.6,500.581,192.529,496.762Z" transform="translate(-157.275 -495.348)"/></g><g transform="translate(62.274 100.966)"><path class="g" d="M169.355,514.319a7.552,7.552,0,0,0-5.307,3.73,43.346,43.346,0,0,0,12.1,2.472,5.306,5.306,0,0,0-.521-3.565C174.231,514.439,171.148,514.07,169.355,514.319Z" transform="translate(-164.048 -514.13)"/><path class="g" d="M184.337,514.965c-1.613-.854-4.262-1.3-5.775,0-1.585,1.362-.967,3.814-1.662,5.655a43.692,43.692,0,0,0,10.633-1.431A6.559,6.559,0,0,0,184.337,514.965Z" transform="translate(-161.581 -514.15)"/></g><path class="g" d="M187.652,440.012c-.2,1-1.023,4.978,1.4,7.875,2.814,3.366,8.99,4.056,12.949.7a9.506,9.506,0,0,0,1.751-12.425,9.25,9.25,0,0,0-11.026-3.326C188.764,434.6,187.85,439.049,187.652,440.012Z" transform="translate(-97.3 -428.924)"/><circle class="h" cx="2.404" cy="2.404" r="2.404" transform="translate(99.544 12.018)"/><path class="g" d="M167.236,440.012c.2,1,1.022,4.978-1.4,7.875-2.814,3.366-8.991,4.056-12.951.7a9.506,9.506,0,0,1-1.75-12.425,9.249,9.249,0,0,1,11.025-3.326C166.124,434.6,167.039,439.049,167.236,440.012Z" transform="translate(-104.554 -428.924)"/><circle class="h" cx="2.404" cy="2.404" r="2.404" transform="translate(48.681 12.018)"/></g></g></g></svg>