<svg xmlns="http://www.w3.org/2000/svg" width="138.648" height="74.354" viewBox="0 0 138.648 74.354"><defs><style>.a{fill:#fff;}</style></defs><g transform="translate(-553.079 -569.011)"><g transform="translate(553.079 621.443)"><path class="a" d="M553.079,617.678v-2.427l2.151-.416V600.346l-2.151-.416v-2.44h8.362v2.44l-2.164.416v14.228h5.7l.195-2.539h3.091v5.643Z" transform="translate(-553.079 -596.047)"/><path class="a" d="M569.084,615.655a6.762,6.762,0,0,1-5.187-2.079,7.442,7.442,0,0,1-1.941-5.284v-.554a8.2,8.2,0,0,1,1.837-5.505,6.852,6.852,0,0,1,9.644-.32,7.045,7.045,0,0,1,1.678,4.951v2.2h-8.958l-.028.083a3.907,3.907,0,0,0,.993,2.44,3.079,3.079,0,0,0,2.391.957,7.747,7.747,0,0,0,2.232-.27,10.217,10.217,0,0,0,1.941-.853l1.1,2.5a7.959,7.959,0,0,1-2.406,1.235A10.182,10.182,0,0,1,569.084,615.655Zm-.361-12.453a2.108,2.108,0,0,0-1.775.863,4.467,4.467,0,0,0-.8,2.259l.04.07h4.964v-.359a3.25,3.25,0,0,0-.6-2.06A2.172,2.172,0,0,0,568.723,603.2Z" transform="translate(-545.163 -593.733)"/><path class="a" d="M576.025,598.288v3.674h2.635V604.8h-2.635v7.641a1.774,1.774,0,0,0,.359,1.25,1.29,1.29,0,0,0,.971.373,6.781,6.781,0,0,0,.728-.034c.208-.023.441-.062.7-.117l.346,2.925a9.427,9.427,0,0,1-1.345.312,9.3,9.3,0,0,1-1.443.1,4.32,4.32,0,0,1-3.224-1.15,5.052,5.052,0,0,1-1.129-3.647V604.8h-2.206v-2.841h2.206v-3.674Z" transform="translate(-538.182 -595.335)"/><path class="a" d="M580.015,599.375a6.762,6.762,0,0,1-.736,2.919,8.13,8.13,0,0,1-1.788,2.5l-2-1.1a8.953,8.953,0,0,0,.832-1.99,8.645,8.645,0,0,0,.291-2.334v-2.648h3.4Z" transform="translate(-533.09 -596.727)"/><path class="a" d="M590.321,605.506H587.6l-.429-1.871a3.543,3.543,0,0,0-1.046-.556,4.193,4.193,0,0,0-1.394-.221,2.718,2.718,0,0,0-1.691.479,1.453,1.453,0,0,0-.624,1.2,1.362,1.362,0,0,0,.6,1.131,6.359,6.359,0,0,0,2.385.8,9.691,9.691,0,0,1,4.132,1.629,3.584,3.584,0,0,1,1.345,2.961,3.93,3.93,0,0,1-1.74,3.307,7.537,7.537,0,0,1-4.582,1.283,9.62,9.62,0,0,1-3.184-.505,8.123,8.123,0,0,1-2.571-1.451l-.042-3.369h2.828l.554,1.956a2.3,2.3,0,0,0,.986.45,5.731,5.731,0,0,0,1.3.146,3.3,3.3,0,0,0,1.879-.445,1.388,1.388,0,0,0,.645-1.205,1.414,1.414,0,0,0-.653-1.152,6.649,6.649,0,0,0-2.4-.859,9.582,9.582,0,0,1-4-1.6,3.472,3.472,0,0,1-1.353-2.891,4.194,4.194,0,0,1,1.553-3.252,6.487,6.487,0,0,1,4.423-1.364,11.377,11.377,0,0,1,3.307.471,7.015,7.015,0,0,1,2.448,1.2Z" transform="translate(-530.364 -593.72)"/></g><g transform="translate(623.284 624.812)"><path class="a" d="M604.993,604.838H602.31l-.373-2.4a3.755,3.755,0,0,0-1.341-.84,5.353,5.353,0,0,0-1.911-.308A4.23,4.23,0,0,0,595.071,603a7.257,7.257,0,0,0-1.267,4.449v.632a7.358,7.358,0,0,0,1.26,4.464,4.159,4.159,0,0,0,3.56,1.718,5.919,5.919,0,0,0,1.948-.308,3.267,3.267,0,0,0,1.366-.84l.373-2.4h2.682v3.562a7.746,7.746,0,0,1-2.777,2.009,9.208,9.208,0,0,1-3.776.749,7.711,7.711,0,0,1-5.936-2.51,9.138,9.138,0,0,1-2.314-6.443v-.605a9.2,9.2,0,0,1,2.3-6.443,7.683,7.683,0,0,1,5.95-2.522,9.081,9.081,0,0,1,3.77.759,8.114,8.114,0,0,1,2.783,2.011Z" transform="translate(-590.19 -598.508)"/><path class="a" d="M598.891,600.82v-2.175h7.455v2.175l-1.93.371v5.193h7.346v-5.193l-1.93-.371v-2.175h7.457v2.175l-1.93.371v12.923l1.93.373v2.162h-7.457v-2.162l1.93-.373v-4.947h-7.346v4.947l1.93.373v2.162h-7.455v-2.162l1.914-.373V601.191Z" transform="translate(-582.431 -598.386)"/><path class="a" d="M609.257,614.486l1.286-.187,5.479-15.654h3.7l5.441,15.654,1.286.187v2.162h-6.133v-2.162l1.249-.225-.791-2.473h-5.836l-.793,2.473,1.249.225v2.162h-6.133Zm6.53-5.355h4.13l-2.03-6.343h-.074Z" transform="translate(-573.187 -598.386)"/><path class="a" d="M633.936,598.645v4.8h-2.771l-.148-2.017H627.7v12.688l1.93.373v2.162h-7.469v-2.162l1.93-.373V601.426h-3.3l-.149,2.017h-2.756v-4.8Z" transform="translate(-565.492 -598.386)"/></g><g transform="translate(574.624 569.011)"><path class="a" d="M632.4,609.245c-.371-.32-.713-.645-1.044-.969a14.515,14.515,0,0,0,5.342-10.847,13.373,13.373,0,0,0-2.416-7.525c.271-1.024.52-2.07.762-3.1a41.051,41.051,0,0,0,1.046-7.845,3.349,3.349,0,1,0-2.034-.011c.112.036.225.049.339.074a20.149,20.149,0,0,1-1.723,7c-.193.431-.422.81-.636,1.209-4.2-4.092-10.845-6.75-18.35-6.75a30.531,30.531,0,0,0-7.277.88,20.227,20.227,0,0,1-1.16-5.726c.112-.025.225-.036.339-.072a3.373,3.373,0,1,0-2.036,0,41.9,41.9,0,0,0,.724,6.413c-8.014,2.65-13.6,8.564-13.6,15.45,0,9.357,10.3,16.941,23.011,16.941a29.343,29.343,0,0,0,11.657-2.351,15.243,15.243,0,0,0,2.179,1.035,17.246,17.246,0,0,0,11.192,0A22.438,22.438,0,0,1,632.4,609.245Z" transform="translate(-541.093 -569.011)"/><path class="a" d="M620.488,580.2c-5.106-6.388-14.529-10.679-25.323-10.679-16.226,0-29.379,9.682-29.379,21.628,0,5.355,2.65,10.253,7.03,14.031a32.515,32.515,0,0,1-8.348,5.117c2.575.885,9.279,2.794,16.339,0,.11-.043.212-.1.322-.144a37.813,37.813,0,0,0,14.037,2.624,36.016,36.016,0,0,0,18.923-5.1,18.131,18.131,0,0,1-3.623-10.7C610.466,590.336,614.329,584.36,620.488,580.2Z" transform="translate(-564.468 -568.56)"/></g></g></svg>