<svg xmlns="http://www.w3.org/2000/svg" xmlns:xlink="http://www.w3.org/1999/xlink" width="197" height="197" viewBox="0 0 197 197"><defs><style>.a,.i{fill:#fff;}.a{stroke:#707070;}.b{fill:#6fe2c3;}.b,.c{stroke:#fff;}.c{fill:#c98cfd;stroke-width:3px;}.d{clip-path:url(#a);}.e{clip-path:url(#b);}.f{fill:#c97e00;}.g{fill:#ffdb53;}.h{fill:#5f5e5e;}.j{fill:#070303;}.k{fill:#fabe00;}.l{stroke:none;}.m{fill:none;}</style><clipPath id="a"><circle class="a" cx="90" cy="90" r="90" transform="translate(-0.436 -0.436)"/></clipPath><clipPath id="b"><path class="b" d="M91.744,0A91.744,91.744,0,1,1,0,91.744,91.744,91.744,0,0,1,91.744,0Z"/></clipPath></defs><g transform="translate(0 0)"><g class="c" transform="translate(0 0)"><circle class="l" cx="98.5" cy="98.5" r="98.5"/><circle class="m" cx="98.5" cy="98.5" r="97"/></g><g class="d" transform="translate(8.436 8.436)"><g class="e" transform="translate(0.691 -1.981)"><g transform="translate(32.603 17.773)"><g transform="translate(76.372 4.647)"><path class="f" d="M709.973,337.782c5.087,1.634,10.281.494,13.048-2.871,2.065-2.512,3.767-5.867,3.78-6.691.088-5.423-5.537-8.478-6.129-8.965l1.827-2.349c.616.438,6.738,4.927,6.524,11.482-.224,6.867-7.321,13.567-16.962,13.57Z" transform="translate(-709.973 -313.86)"/><circle class="g" cx="4.015" cy="4.015" r="4.015" transform="translate(6.729 0)"/></g><g transform="translate(21.663 0)"><path class="f" d="M679.735,333.595c-5.088,1.634-10.281.494-13.049-2.87-2.065-2.513-3.767-5.867-3.78-6.691-.088-5.424,5.537-8.479,6.13-8.966l-1.827-2.349c-.617.438-6.738,4.927-6.525,11.482.225,6.867,7.32,13.567,16.963,13.57Z" transform="translate(-660.679 -309.673)"/><circle class="g" cx="4.015" cy="4.015" r="4.015" transform="translate(4.298)"/></g><path class="f" d="M718.065,370.007c1.394-.688,7.378-3.453,13.514-.989,8.578,3.445,11.884,15.175,9.889,16.151-3.007,1.468-3.88-4.889-11.677-7.839-7.447-2.817-12.925-.381-13.7-3.038C715.839,373.442,716.05,372.113,718.065,370.007Z" transform="translate(-632.938 -303.598)"/><path class="f" d="M718.065,386.61c1.394-.687,7.378-3.453,13.514-.989,8.578,3.445,11.884,15.176,9.889,16.151-3.007,1.468-3.88-4.889-11.677-7.839-7.447-2.817-12.925-.38-13.7-3.038C715.839,390.046,716.05,388.717,718.065,386.61Z" transform="translate(-632.938 -301.774)"/><path class="f" d="M718.065,405.257c1.394-.687,7.378-3.453,13.514-.989,8.578,3.445,11.884,15.176,9.889,16.151-3.007,1.468-3.88-4.889-11.677-7.839-7.447-2.817-12.925-.381-13.7-3.038C715.839,408.693,716.05,407.364,718.065,405.257Z" transform="translate(-632.938 -299.725)"/><path class="f" d="M718.065,420.909c1.394-.688,7.378-3.454,13.514-.989,8.578,3.444,11.884,15.175,9.889,16.151-3.007,1.469-3.88-4.89-11.677-7.839-7.447-2.818-12.925-.381-13.7-3.039C715.839,424.344,716.05,423.015,718.065,420.909Z" transform="translate(-632.938 -298.005)"/><path class="f" d="M718.065,437.7c1.394-.688,7.378-3.453,13.514-.989,8.578,3.445,11.884,15.175,9.889,16.151-3.007,1.469-3.88-4.889-11.677-7.839-7.447-2.818-12.925-.381-13.7-3.039C715.839,441.133,716.05,439.8,718.065,437.7Z" transform="translate(-632.938 -296.161)"/><path class="f" d="M718.065,454.3c1.394-.688,7.378-3.453,13.514-.989,8.578,3.445,11.884,15.176,9.889,16.151-3.007,1.468-3.88-4.889-11.677-7.839-7.447-2.817-12.925-.381-13.7-3.038C715.839,457.736,716.05,456.408,718.065,454.3Z" transform="translate(-632.938 -294.337)"/><path class="f" d="M665.127,370.007c-1.394-.688-7.378-3.453-13.515-.989-8.578,3.445-11.884,15.175-9.888,16.151,3.006,1.468,3.88-4.889,11.677-7.839,7.446-2.817,12.924-.381,13.7-3.038C667.354,373.442,667.143,372.113,665.127,370.007Z" transform="translate(-641.161 -303.598)"/><path class="f" d="M665.127,386.61c-1.394-.687-7.378-3.453-13.515-.989-8.578,3.445-11.884,15.176-9.888,16.151,3.006,1.468,3.88-4.889,11.677-7.839,7.446-2.817,12.924-.38,13.7-3.038C667.354,390.046,667.143,388.717,665.127,386.61Z" transform="translate(-641.161 -301.774)"/><path class="f" d="M665.127,405.257c-1.394-.687-7.378-3.453-13.515-.989-8.578,3.445-11.884,15.176-9.888,16.151,3.006,1.468,3.88-4.889,11.677-7.839,7.446-2.817,12.924-.381,13.7-3.038C667.354,408.693,667.143,407.364,665.127,405.257Z" transform="translate(-641.161 -299.725)"/><path class="f" d="M665.127,420.909c-1.394-.688-7.378-3.454-13.515-.989-8.578,3.444-11.884,15.175-9.888,16.151,3.006,1.469,3.88-4.89,11.677-7.839,7.446-2.818,12.924-.381,13.7-3.039C667.354,424.344,667.143,423.015,665.127,420.909Z" transform="translate(-641.161 -298.005)"/><path class="f" d="M665.127,437.7c-1.394-.688-7.378-3.453-13.515-.989-8.578,3.445-11.884,15.175-9.888,16.151,3.006,1.469,3.88-4.889,11.677-7.839,7.446-2.818,12.924-.381,13.7-3.039C667.354,441.133,667.143,439.8,665.127,437.7Z" transform="translate(-641.161 -296.161)"/><path class="f" d="M665.127,454.3c-1.394-.688-7.378-3.453-13.515-.989-8.578,3.445-11.884,15.176-9.888,16.151,3.006,1.468,3.88-4.889,11.677-7.839,7.446-2.817,12.924-.381,13.7-3.038C667.354,457.736,667.143,456.408,665.127,454.3Z" transform="translate(-641.161 -294.337)"/><path class="g" d="M699.144,314.981c-7.922-2.256-18.44,3.27-24.3,9.063s-9.228,13.642-11.547,21.547c-3.672,12.523-5.036,25.588-6.384,38.568l-7.211,69.47c-.7,6.77-1.368,13.842,1.092,20.188,3.148,8.12,10.744,13.477,16.52,20,8.758,9.883,14.941,23.908,27.731,27.194,9.047,2.325,18.7-1.891,25.6-8.185,13.465-12.284,18.537-31.466,18.975-49.687s-3.079-36.306-3.763-54.52c-.824-21.943,2.4-44.531-4.24-65.463-4.676-14.752-17.042-29.3-32.477-28.17" transform="translate(-640.293 -309.481)"/><g transform="translate(31.191 51.207)"><path class="h" d="M679.335,362.469c3.83.623,7.748,1.245,11.568.565a34.613,34.613,0,0,0,5.743-1.73l9.109-3.333a26.437,26.437,0,0,1,6.79-1.818,8.9,8.9,0,0,1,6.61,1.848,5.44,5.44,0,0,1,1.488,6.366,8.7,8.7,0,0,1-3.491,3.088,76.152,76.152,0,0,1-14.8,7.229,32.685,32.685,0,0,1-16.257,1.5c-4.987-.94-9.556-3.348-14.04-5.726a5.661,5.661,0,0,1-2.428-1.942c-.966-1.684.121-3.944,1.792-4.931s5.976-1.087,7.916-1.114" transform="translate(-669.264 -356.112)"/><g transform="translate(4.332 0.002)"><path class="i" d="M681.629,362.331l1.666,3.849,2.1-3.544A36.566,36.566,0,0,1,681.629,362.331Z" transform="translate(-672.237 -355.431)"/><path class="i" d="M674.9,365.739l2.043-3.85a28.931,28.931,0,0,0-3.781.382Z" transform="translate(-673.167 -355.479)"/><path class="i" d="M679.183,366.234l2.234-3.938c-.991-.138-1.979-.3-2.961-.456-.332,0-.749.014-1.194.027Z" transform="translate(-672.717 -355.485)"/><path class="i" d="M689.376,362.288c-.1.02-.2.049-.308.068a19.85,19.85,0,0,1-3.105.286l2.27,3.543Z" transform="translate(-671.761 -355.435)"/><path class="i" d="M704.562,357.076c-.758.251-1.512.516-2.258.789l-1.634.6,2.872,2.47Z" transform="translate(-670.145 -356.008)"/><path class="i" d="M708.6,356.153a17.514,17.514,0,0,0-3.464.686l2.984,2.76,2.351-3.446A11.23,11.23,0,0,0,708.6,356.153Z" transform="translate(-669.654 -356.114)"/><path class="i" d="M695.393,360.411l2.7,2.623,1.573-4.185Z" transform="translate(-670.725 -355.813)"/><path class="i" d="M694.4,360.768l-.067.024c-1.326.485-2.659.966-4.02,1.333l2.576,2.24Z" transform="translate(-671.283 -355.602)"/></g><g transform="translate(6.562 11.368)"><path class="i" d="M707.088,366.355l-.639,3.685c1.469-.755,2.916-1.554,4.348-2.38Z" transform="translate(-671.742 -366.355)"/><path class="i" d="M683.686,374.374,681.574,370l-1.75,3.183A32.179,32.179,0,0,0,683.686,374.374Z" transform="translate(-674.667 -365.955)"/><path class="i" d="M705.671,370.516l-3.237-2.124-1.653,4.265C702.445,372.025,704.071,371.3,705.671,370.516Z" transform="translate(-672.364 -366.131)"/><path class="i" d="M690.7,371.788l-2.827,3.093a30.939,30.939,0,0,0,5.708-.316Z" transform="translate(-673.783 -365.758)"/><path class="i" d="M675.177,371.023c1.3.648,2.608,1.258,3.94,1.81l-2.034-4.07Z" transform="translate(-675.177 -366.091)"/><path class="i" d="M687.119,374.813l-1.205-3.129-1.924,2.677c.164.034.324.08.488.111A26.2,26.2,0,0,0,687.119,374.813Z" transform="translate(-674.209 -365.77)"/><path class="i" d="M695.688,370.677l-1.5,3.8a40.022,40.022,0,0,0,5.423-1.392c.09-.03.177-.065.266-.1Z" transform="translate(-673.088 -365.88)"/></g></g><path class="i" d="M680.476,339.081c-.319,1.552-1.594,7.762,2.183,12.281,4.39,5.25,14.021,6.325,20.2,1.091a14.823,14.823,0,0,0,2.729-19.376c-3.82-5.552-11.383-7.767-17.193-5.185C682.21,330.637,680.785,337.579,680.476,339.081Z" transform="translate(-636.893 -308.124)"/><circle class="j" cx="2.239" cy="2.239" r="2.239" transform="translate(55.309 28.748)"/><path class="k" d="M691.14,387.865a97.093,97.093,0,0,1-34.954-9.485q-.829,7.984-1.657,15.967a117.317,117.317,0,0,0,80.673,5.124c-.161-6.153-.052-12.348.046-18.54A97.48,97.48,0,0,1,691.14,387.865Z" transform="translate(-639.692 -302.459)"/><path class="k" d="M692.849,414.457a142.356,142.356,0,0,1-39.7-7.171q-.638,6.153-1.278,12.307a143.3,143.3,0,0,0,86,6.209c-.55-5.494-1.15-10.988-1.617-16.488A142.4,142.4,0,0,1,692.849,414.457Z" transform="translate(-639.984 -299.283)"/><path class="k" d="M688.944,437.785a331.5,331.5,0,0,0-38.456-5.019q-.41,3.934-.817,7.866c-.106,1.026-.211,2.059-.3,3.1a241.342,241.342,0,0,0,90.23,5.652c.083-4.607-.078-9.206-.378-13.8C715.658,440.4,699.973,440.056,688.944,437.785Z" transform="translate(-640.259 -296.484)"/></g></g></g></g></svg>